<svg width="512" height="512" viewBox="0 0 512 512" fill="none" xmlns="http://www.w3.org/2000/svg">
<g clip-path="url(#clip0_8_10)">
<rect width="447" height="447" rx="16" fill="#272727"/>
<g clip-path="url(#clip1_8_10)">
<rect x="60" y="60" width="452" height="452" rx="16" fill="#303030"/>
<path fill-rule="evenodd" clip-rule="evenodd" d="M317.637 236.789C317.578 236.258 317.253 235.932 316.659 235.81C315.68 268.742 315.355 301.68 315.68 334.624C311.806 362.801 296.152 380.901 268.719 388.923C235.919 394.527 211.949 382.623 196.81 353.213C184.773 316.475 195.699 288.918 229.585 270.542C235.846 267.835 242.367 266.367 249.152 266.139C257.957 266.139 266.763 266.139 275.568 266.139C275.568 243.963 275.568 221.788 275.568 199.611C278.726 186.84 286.88 181.132 300.027 182.49C324.432 194.041 348.565 206.107 372.425 218.689C382.018 230.059 381.365 240.821 370.468 250.975C364.645 254.153 358.449 255.131 351.879 253.91C340.44 248.19 329.025 242.483 317.637 236.789Z" fill="#CFBCFF"/>
<path fill-rule="evenodd" clip-rule="evenodd" d="M352.589 60.0612C368.627 68.4056 371.726 80.472 361.884 96.2603C346.393 120.883 326.337 140.939 301.715 156.429C279.639 168.609 257.137 180.022 234.208 190.672C228.498 194.016 222.953 197.602 217.576 201.433C204.443 213.189 193.519 226.723 184.801 242.035C173.137 263.731 161.724 285.581 150.559 307.585C135.041 335.847 116.29 361.773 94.3036 385.364C79.5372 394.519 68.1231 391.42 60.0612 376.07C59.8981 275.298 59.5108 174.467 60 73.697C61.4676 64.4026 67.8269 60.9783 74.6754 60C167.618 59.5108 259.645 59.8981 352.589 60.0612Z" fill="#4D4D4D"/>
</g>
</g>
<defs>
<clipPath id="clip0_8_10">
<rect width="512" height="512" fill="white"/>
</clipPath>
<clipPath id="clip1_8_10">
<rect x="60" y="60" width="452" height="452" rx="16" fill="white"/>
</clipPath>
</defs>
</svg>
